<mxfile host="app.diagrams.net" modified="2023-11-18T16:39:27.490Z" agent="Mozilla/5.0 (Windows NT 10.0; Win64; x64) AppleWebKit/537.36 (KHTML, like Gecko) Chrome/119.0.0.0 Safari/537.36" etag="5ofDOLfBxKPzyNq9yqmr" version="22.1.3" type="github">
  <diagram name="Page-1" id="4CLQ7QdUqKHH7uZJYLE0">
    <mxGraphModel dx="1034" dy="464" grid="1" gridSize="10" guides="1" tooltips="1" connect="1" arrows="1" fold="1" page="1" pageScale="1" pageWidth="850" pageHeight="1100" math="0" shadow="0">
      <root>
        <mxCell id="0" />
        <mxCell id="1" parent="0" />
      </root>
    </mxGraphModel>
  </diagram>
</mxfile>
